<svg id="svg" version="1.1" xmlns="http://www.w3.org/2000/svg" xmlns:xlink="http://www.w3.org/1999/xlink" width="400" height="405.6338028169014" viewBox="0, 0, 400,405.6338028169014"><g id="svgg"><path id="path0" d="M156.501 80.246 C 144.508 82.851,135.751 91.966,131.950 105.800 C 131.202 108.522,131.202 119.878,131.950 122.600 C 136.228 138.169,146.669 147.705,160.494 148.668 C 196.971 151.210,206.365 94.484,171.673 81.156 C 167.783 79.661,161.052 79.258,156.501 80.246 M160.660 90.558 C 177.481 95.037,176.473 119.258,159.348 122.096 C 148.140 123.953,138.562 112.238,142.214 101.139 C 144.783 93.327,153.114 88.549,160.660 90.558 M103.800 251.068 C 97.140 252.107,93.042 255.472,86.933 264.920 C 85.055 267.824,82.371 271.910,80.969 274.000 L 78.420 277.800 78.761 300.800 C 79.150 326.972,79.135 326.860,83.014 332.525 C 87.282 338.758,97.712 343.807,103.866 342.620 C 104.710 342.457,106.210 342.185,107.200 342.015 C 115.280 340.627,123.263 333.000,125.332 324.691 C 125.601 323.610,125.800 312.387,125.884 293.583 L 126.015 264.167 123.307 260.802 C 117.469 253.546,110.430 250.033,103.800 251.068 M190.000 251.046 C 182.812 252.287,179.140 255.413,171.967 266.400 C 169.597 270.030,166.789 274.132,165.729 275.516 L 163.800 278.032 163.917 322.516 C 164.038 368.634,164.071 370.089,165.060 373.400 C 169.679 388.862,188.381 396.615,202.400 388.879 C 210.331 384.502,215.046 377.548,216.012 368.800 C 216.572 363.727,216.451 271.584,215.882 270.374 C 215.212 268.947,210.614 262.440,208.175 259.468 C 203.207 253.414,195.900 250.028,190.000 251.046 M275.086 251.196 C 268.473 252.377,264.039 256.542,256.456 268.696 L 254.400 271.991 254.400 303.777 C 254.400 321.259,254.557 335.976,254.749 336.481 C 254.941 336.987,255.319 338.120,255.591 339.000 C 257.745 345.994,263.262 351.326,271.565 354.439 C 273.427 355.137,281.688 355.153,284.000 354.462 C 292.193 352.016,298.040 346.120,300.748 337.572 C 301.069 336.556,301.200 326.452,301.200 302.619 L 301.200 269.095 298.300 265.114 C 296.705 262.925,295.142 260.744,294.827 260.267 C 290.593 253.865,282.071 249.949,275.086 251.196 " stroke="none" fill="#3f4699" fill-rule="evenodd"></path><path id="path1" d="M179.000 7.591 C 178.340 7.764,176.869 7.927,175.731 7.953 C 174.592 7.979,172.792 8.171,171.731 8.380 C 170.669 8.588,167.910 9.051,165.600 9.409 C 161.583 10.030,160.616 10.225,157.000 11.138 C 156.120 11.361,154.140 11.840,152.600 12.204 C 151.060 12.568,149.440 13.008,149.000 13.183 C 148.560 13.358,146.580 14.010,144.600 14.632 C 142.620 15.255,140.829 15.907,140.620 16.082 C 140.411 16.257,139.914 16.400,139.515 16.400 C 139.116 16.400,138.477 16.562,138.095 16.759 C 137.713 16.956,136.590 17.428,135.600 17.807 C 132.718 18.910,132.278 19.085,130.800 19.718 C 130.030 20.047,128.410 20.731,127.200 21.236 C 123.915 22.609,116.592 26.430,112.391 28.963 C 110.350 30.193,108.527 31.200,108.340 31.200 C 108.153 31.200,108.000 31.380,108.000 31.600 C 108.000 31.820,107.816 32.000,107.591 32.000 C 107.216 32.000,104.062 33.905,103.600 34.411 C 103.490 34.532,101.861 35.646,99.981 36.887 C 97.080 38.801,94.880 40.460,88.539 45.514 C 83.157 49.803,72.420 60.563,67.365 66.734 C 66.944 67.247,66.183 68.147,65.673 68.734 C 62.717 72.136,55.074 82.802,51.582 88.400 C 48.531 93.289,43.356 103.120,41.260 108.008 C 40.743 109.213,40.086 110.740,39.801 111.400 C 39.516 112.060,38.883 113.590,38.393 114.800 C 37.904 116.010,37.187 117.720,36.801 118.600 C 35.933 120.576,32.995 129.255,32.153 132.329 C 31.811 133.578,31.354 135.230,31.138 136.000 C 30.630 137.809,28.829 145.673,28.390 148.000 C 28.202 148.990,27.941 150.340,27.808 151.000 C 26.922 155.402,26.442 158.870,25.510 167.600 C 24.920 173.129,24.924 196.641,25.516 202.000 C 26.173 207.945,26.668 211.640,26.965 212.800 C 27.106 213.350,27.388 214.970,27.593 216.400 C 27.990 219.184,28.349 220.974,29.398 225.400 C 29.763 226.940,30.161 228.969,30.284 229.909 C 30.406 230.849,30.662 231.715,30.853 231.833 C 31.044 231.951,31.200 232.489,31.200 233.029 C 31.200 233.569,31.365 234.323,31.567 234.705 C 31.768 235.087,32.236 236.480,32.607 237.800 C 33.597 241.330,34.073 242.903,34.423 243.800 C 34.595 244.240,35.215 245.950,35.800 247.600 C 36.385 249.250,37.012 250.960,37.192 251.400 C 37.372 251.840,37.743 252.830,38.015 253.600 C 39.142 256.779,47.959 274.904,48.491 275.133 C 48.661 275.207,48.800 275.452,48.800 275.680 C 48.800 276.195,51.670 278.886,53.800 280.369 C 55.276 281.396,56.318 281.920,59.319 283.144 C 60.628 283.678,68.091 283.760,69.105 283.252 C 69.487 283.061,70.672 282.515,71.738 282.039 C 72.804 281.563,74.649 280.253,75.838 279.129 C 77.027 278.004,78.000 277.225,78.000 277.397 C 78.000 278.054,80.636 274.344,84.856 267.748 C 93.473 254.277,97.649 251.000,106.200 251.000 C 113.217 251.000,119.945 255.212,124.974 262.752 C 125.945 264.209,127.075 265.760,127.485 266.200 C 127.895 266.640,129.368 268.620,130.757 270.600 C 134.159 275.445,139.134 280.305,142.200 281.777 C 143.520 282.411,144.913 283.080,145.295 283.265 C 146.283 283.742,154.700 283.685,155.000 283.200 C 155.136 282.980,155.605 282.800,156.043 282.800 C 156.480 282.800,157.801 282.184,158.978 281.431 C 163.810 278.341,164.605 277.395,171.947 266.000 C 179.301 254.588,184.146 251.000,192.200 251.000 C 200.137 251.000,205.338 254.697,213.319 266.012 C 219.597 274.913,224.298 279.892,228.200 281.773 C 229.520 282.409,230.913 283.080,231.295 283.265 C 232.283 283.742,240.700 283.685,241.000 283.200 C 241.136 282.980,241.610 282.800,242.054 282.800 C 243.367 282.800,248.071 279.503,250.005 277.227 C 253.264 273.392,253.815 272.639,256.611 268.200 C 265.734 253.713,271.448 249.697,280.980 251.070 C 287.673 252.034,292.601 256.166,300.454 267.400 C 304.037 272.526,305.343 274.178,308.258 277.269 C 309.476 278.561,310.307 279.776,310.187 280.089 C 309.322 282.343,324.753 285.268,327.283 283.330 C 327.567 283.112,328.430 282.689,329.200 282.389 C 334.382 280.374,342.603 270.272,347.095 260.400 C 349.306 255.543,349.472 255.149,350.722 251.800 C 353.876 243.355,355.347 238.968,356.588 234.300 C 358.259 228.020,358.319 227.764,359.998 219.800 C 365.056 195.802,364.082 162.778,357.604 138.700 C 355.089 129.354,351.646 119.110,348.830 112.600 C 346.766 107.827,345.000 104.216,341.888 98.400 C 338.827 92.679,337.883 90.995,337.143 89.938 C 336.735 89.354,336.400 88.765,336.400 88.630 C 336.400 88.261,334.247 85.021,333.900 84.867 C 333.735 84.793,333.600 84.577,333.600 84.386 C 333.600 84.013,330.160 78.948,329.312 78.071 C 329.030 77.781,328.800 77.410,328.800 77.247 C 328.800 77.084,328.479 76.602,328.086 76.175 C 327.694 75.749,326.632 74.362,325.728 73.092 C 324.009 70.682,321.257 67.420,317.704 63.582 C 316.551 62.336,315.204 60.796,314.710 60.159 C 313.144 58.137,305.198 50.421,301.065 46.910 C 297.160 43.593,291.242 39.037,288.193 37.000 C 286.217 35.680,284.510 34.495,284.400 34.366 C 284.128 34.047,279.631 31.200,279.400 31.200 C 279.299 31.200,278.177 30.534,276.908 29.721 C 273.737 27.689,260.535 20.800,259.811 20.800 C 259.690 20.800,258.738 20.419,257.696 19.953 C 255.239 18.856,253.728 18.237,252.000 17.620 C 251.230 17.344,250.240 16.967,249.800 16.780 C 249.360 16.594,246.930 15.780,244.400 14.971 C 241.870 14.163,239.440 13.357,239.000 13.181 C 238.560 13.005,236.850 12.560,235.200 12.191 C 233.550 11.822,231.660 11.370,231.000 11.187 C 226.422 9.917,223.435 9.401,212.200 7.941 C 208.335 7.438,180.693 7.147,179.000 7.591 M191.800 53.012 C 199.899 53.925,205.544 55.204,210.200 57.180 C 210.640 57.366,211.630 57.746,212.400 58.024 C 222.825 61.783,236.503 71.628,244.610 81.206 C 247.780 84.952,252.861 91.889,254.396 94.567 C 256.936 98.999,257.945 100.857,258.871 102.800 C 260.934 107.133,261.924 109.425,262.414 111.000 C 262.687 111.880,263.059 112.960,263.240 113.400 C 264.055 115.385,265.600 120.663,265.600 121.465 C 265.600 121.953,265.760 122.452,265.956 122.573 C 266.151 122.694,266.407 123.379,266.523 124.096 C 266.640 124.813,267.018 126.840,267.363 128.600 C 269.421 139.082,269.419 156.568,267.360 167.000 C 267.012 168.760,266.635 170.876,266.522 171.703 C 266.408 172.529,266.155 173.305,265.958 173.426 C 265.761 173.548,265.600 174.047,265.600 174.535 C 265.600 175.362,263.998 180.799,263.225 182.600 C 263.035 183.040,262.657 184.030,262.383 184.800 C 261.524 187.221,258.721 192.930,257.536 194.672 C 256.911 195.592,256.400 196.449,256.400 196.578 C 256.400 196.899,252.478 202.269,251.000 203.972 C 249.352 205.871,247.354 207.823,244.562 210.263 C 239.666 214.539,238.374 215.453,233.400 218.164 C 232.960 218.404,232.510 218.699,232.400 218.821 C 232.290 218.942,231.480 219.370,230.600 219.772 C 229.720 220.174,227.830 221.037,226.400 221.690 C 222.747 223.359,222.486 223.459,219.800 224.209 C 218.480 224.578,217.040 225.028,216.600 225.210 C 216.160 225.391,215.260 225.653,214.600 225.792 C 213.940 225.931,212.230 226.311,210.800 226.636 C 196.411 229.904,172.559 229.891,158.800 226.607 C 157.370 226.266,155.611 225.875,154.890 225.739 C 154.170 225.603,153.484 225.336,153.367 225.146 C 153.249 224.956,152.634 224.800,152.000 224.800 C 151.366 224.800,150.751 224.644,150.633 224.454 C 150.516 224.264,149.819 224.010,149.085 223.891 C 145.493 223.308,132.409 216.435,128.839 213.256 C 128.310 212.785,127.739 212.400,127.569 212.400 C 126.824 212.400,117.549 202.698,115.523 199.800 C 112.408 195.341,107.600 186.474,107.600 185.187 C 107.600 184.968,107.441 184.477,107.247 184.095 C 106.506 182.638,106.021 181.320,105.372 179.000 C 105.002 177.680,104.556 176.240,104.380 175.800 C 104.204 175.360,103.950 174.460,103.816 173.800 C 103.681 173.140,103.298 171.340,102.965 169.800 C 101.131 161.332,100.384 148.778,101.167 139.600 C 101.990 129.951,102.377 127.517,103.992 121.800 C 104.178 121.140,104.603 119.610,104.935 118.400 C 105.642 115.828,106.697 112.539,107.180 111.400 C 107.366 110.960,107.747 109.970,108.025 109.200 C 108.645 107.485,112.442 99.477,112.767 99.200 C 112.896 99.090,113.267 98.460,113.592 97.800 C 114.585 95.785,118.093 90.208,118.457 90.067 C 118.646 89.993,118.800 89.678,118.800 89.367 C 118.800 89.055,118.941 88.800,119.114 88.800 C 119.286 88.800,119.722 88.305,120.083 87.700 C 120.443 87.095,121.067 86.240,121.469 85.800 C 121.871 85.359,122.720 84.279,123.357 83.400 C 125.801 80.018,135.814 70.607,140.412 67.369 C 146.594 63.014,151.387 60.329,156.000 58.637 C 157.650 58.031,159.450 57.346,160.000 57.114 C 162.297 56.146,163.685 55.686,167.600 54.597 C 173.829 52.863,184.364 52.173,191.800 53.012 " stroke="none" fill="#fa70ab" fill-rule="evenodd"></path><path id="path2" d="M0.000 202.800 L 0.000 405.600 200.000 405.600 L 400.000 405.600 400.000 202.800 L 400.000 0.000 200.000 0.000 L 0.000 0.000 0.000 202.800 M211.600 7.386 C 214.570 7.733,217.630 8.108,218.400 8.220 C 221.032 8.600,229.661 10.281,231.700 10.810 C 232.525 11.025,233.875 11.367,234.700 11.572 C 239.843 12.848,250.091 16.182,253.800 17.785 C 254.460 18.071,255.990 18.706,257.200 19.197 C 263.888 21.911,270.146 25.103,277.323 29.461 C 279.261 30.637,280.918 31.600,281.007 31.600 C 281.261 31.600,289.560 37.237,292.200 39.203 C 303.363 47.516,315.374 59.292,325.245 71.600 C 328.917 76.179,336.346 87.272,339.710 93.200 C 341.255 95.923,347.867 109.020,348.393 110.400 C 348.686 111.170,349.284 112.610,349.722 113.600 C 351.211 116.970,355.354 129.044,356.584 133.600 C 356.733 134.150,357.033 135.230,357.253 136.000 C 357.760 137.781,358.747 141.727,359.204 143.800 C 359.398 144.680,359.750 146.210,359.987 147.200 C 360.647 149.963,361.892 158.092,362.803 165.600 C 364.678 181.040,363.473 205.315,360.024 221.600 C 359.815 222.590,359.535 223.940,359.403 224.600 C 359.270 225.260,358.994 226.430,358.788 227.200 C 358.583 227.970,358.125 229.860,357.772 231.400 C 357.419 232.940,356.806 235.190,356.410 236.400 C 356.014 237.610,355.189 240.220,354.576 242.200 C 353.964 244.180,353.347 245.980,353.204 246.200 C 353.062 246.420,352.606 247.680,352.191 249.000 C 351.776 250.320,351.293 251.571,351.118 251.780 C 350.943 251.989,350.800 252.389,350.800 252.668 C 350.800 252.948,350.340 254.217,349.777 255.488 C 349.215 256.760,348.609 258.160,348.430 258.600 C 342.104 274.217,331.974 284.094,322.208 284.167 C 316.418 284.210,309.813 282.191,309.793 280.372 C 309.790 280.027,308.549 278.367,307.035 276.683 C 305.522 274.999,303.953 273.077,303.548 272.411 C 303.143 271.745,302.637 271.200,302.423 271.200 C 302.176 271.200,301.987 283.171,301.905 304.100 L 301.775 337.000 300.716 339.680 C 292.012 361.712,261.253 360.593,254.542 338.000 C 253.969 336.072,253.867 332.007,253.716 305.100 C 253.621 288.215,253.484 274.400,253.413 274.400 C 253.341 274.400,251.959 275.770,250.341 277.444 C 240.334 287.802,227.513 286.276,218.468 273.649 C 217.645 272.501,217.144 272.088,217.010 272.449 C 216.899 272.752,216.758 295.230,216.699 322.400 L 216.590 371.800 215.481 374.600 C 210.563 387.025,195.930 395.389,184.960 392.047 C 184.322 391.852,182.990 391.460,182.000 391.174 C 174.446 388.996,167.087 381.778,164.716 374.223 C 163.228 369.481,163.201 368.575,163.200 323.022 L 163.200 278.643 161.900 279.845 C 158.435 283.050,155.133 284.224,149.800 284.150 C 142.072 284.042,137.009 280.369,129.020 269.074 C 127.960 267.574,126.943 266.497,126.761 266.679 C 126.579 266.861,126.379 279.877,126.315 295.605 C 126.209 321.961,126.144 324.357,125.480 326.200 C 118.439 345.754,93.487 349.178,82.178 332.140 C 78.273 326.258,78.018 324.204,78.008 298.617 L 78.000 277.833 76.300 279.442 C 72.962 282.599,71.435 283.298,66.130 284.093 C 63.206 284.531,58.844 283.874,56.622 282.660 C 51.664 279.953,49.030 277.358,46.597 272.783 C 42.842 265.724,38.514 256.510,37.021 252.400 C 36.422 250.750,35.595 248.500,35.184 247.400 C 34.773 246.300,34.135 244.410,33.767 243.200 C 33.399 241.990,32.679 239.717,32.168 238.149 C 31.657 236.580,30.864 233.700,30.406 231.749 C 29.949 229.797,29.412 227.570,29.213 226.800 C 28.242 223.047,27.620 219.796,26.000 210.000 C 24.523 201.068,24.041 176.130,25.153 166.200 C 26.159 157.224,26.250 156.633,28.030 147.500 C 29.297 140.998,31.290 132.662,31.976 131.000 C 32.157 130.560,32.790 128.670,33.382 126.800 C 34.571 123.039,37.826 114.424,38.661 112.824 C 38.955 112.261,39.196 111.670,39.198 111.510 C 39.203 110.853,43.178 102.618,46.780 95.800 C 49.301 91.029,56.518 79.575,58.501 77.200 C 58.777 76.870,59.715 75.610,60.586 74.400 C 68.575 63.305,84.583 47.299,95.600 39.391 C 96.810 38.523,97.980 37.668,98.200 37.493 C 99.510 36.449,105.744 32.400,106.042 32.400 C 106.239 32.400,106.400 32.220,106.400 32.000 C 106.400 31.780,106.564 31.600,106.765 31.600 C 106.965 31.600,109.260 30.313,111.865 28.740 C 118.169 24.933,125.331 21.332,130.832 19.203 C 132.025 18.741,133.540 18.117,134.200 17.815 C 136.018 16.984,145.114 13.820,148.600 12.805 C 153.345 11.424,153.971 11.272,159.800 10.080 C 162.000 9.630,164.340 9.145,165.000 9.001 C 167.502 8.456,178.013 7.147,183.800 6.660 C 188.072 6.301,206.412 6.780,211.600 7.386 M180.000 53.252 C 141.268 57.700,113.279 84.370,103.445 126.200 C 101.072 136.294,100.691 153.247,102.577 164.800 C 109.428 206.763,137.930 228.848,185.177 228.805 C 192.141 228.798,206.426 227.409,209.800 226.410 C 210.460 226.214,213.700 225.319,217.000 224.421 C 237.780 218.763,252.805 205.579,261.697 185.200 C 265.895 175.581,268.400 161.486,268.400 147.489 C 268.400 140.478,268.258 138.570,267.145 130.600 C 266.742 127.716,265.369 121.736,264.390 118.600 C 263.038 114.274,261.876 110.833,261.417 109.800 C 261.123 109.140,260.467 107.610,259.959 106.400 C 255.109 94.861,245.717 81.876,236.076 73.382 C 227.737 66.035,219.592 61.177,209.400 57.472 C 202.452 54.946,200.096 54.439,190.400 53.387 C 184.517 52.749,184.391 52.747,180.000 53.252 M166.572 79.616 C 175.613 80.923,184.127 86.816,188.830 95.020 C 190.341 97.658,191.600 100.363,191.600 100.974 C 191.600 101.293,191.759 101.651,191.954 101.771 C 192.149 101.892,192.406 102.487,192.525 103.095 C 192.645 103.703,193.025 105.550,193.371 107.200 C 194.175 111.040,194.175 117.360,193.371 121.200 C 193.025 122.850,192.645 124.697,192.525 125.305 C 192.406 125.913,192.149 126.508,191.954 126.629 C 191.759 126.749,191.600 127.102,191.600 127.413 C 191.600 128.468,189.466 132.588,187.360 135.600 C 182.835 142.072,177.261 146.017,169.200 148.453 C 166.796 149.179,157.995 149.180,155.600 148.454 C 143.824 144.885,135.049 136.010,132.210 124.800 C 131.848 123.370,131.383 121.549,131.176 120.754 C 130.651 118.733,130.706 109.605,131.257 107.306 C 132.643 101.523,135.339 95.022,137.076 93.271 C 137.364 92.981,137.600 92.585,137.600 92.393 C 137.600 92.200,139.085 90.548,140.900 88.721 C 148.237 81.337,156.993 78.232,166.572 79.616 M154.073 90.828 C 142.083 93.188,137.640 108.442,146.384 117.227 C 156.222 127.112,172.420 120.248,172.394 106.206 C 172.375 96.205,163.709 88.931,154.073 90.828 " stroke="none" fill="#fbfbfb" fill-rule="evenodd"></path><path id="path3" d="M183.800 6.686 C 175.673 7.264,159.713 9.560,161.352 9.916 C 161.766 10.005,163.656 9.803,165.552 9.466 C 169.697 8.729,173.883 8.087,176.600 7.772 C 177.700 7.645,185.170 7.419,193.200 7.270 C 204.661 7.058,206.940 6.936,203.800 6.702 C 199.898 6.411,187.800 6.402,183.800 6.686 M208.800 7.600 C 209.350 7.776,210.689 7.938,211.776 7.960 C 212.863 7.982,214.753 8.174,215.976 8.387 C 223.287 9.658,226.335 10.088,226.835 9.920 C 227.918 9.555,212.422 7.219,209.200 7.261 C 207.924 7.278,207.889 7.308,208.800 7.600 M158.000 10.403 C 152.201 11.691,149.982 12.281,149.668 12.620 C 149.382 12.929,149.828 12.849,154.200 11.808 C 155.740 11.442,157.682 10.998,158.516 10.822 C 159.350 10.646,160.145 10.389,160.283 10.251 C 160.590 9.943,159.846 9.993,158.000 10.403 M227.684 10.215 C 227.840 10.373,228.650 10.644,229.484 10.817 C 230.318 10.991,232.516 11.513,234.369 11.977 C 236.222 12.441,237.932 12.748,238.169 12.660 C 238.406 12.571,238.060 12.378,237.400 12.230 C 235.950 11.905,233.436 11.267,231.800 10.811 C 229.837 10.263,227.379 9.907,227.684 10.215 M143.000 14.630 C 140.140 15.623,136.990 16.715,136.000 17.057 C 134.150 17.696,133.052 18.400,133.906 18.400 C 134.345 18.400,136.550 17.532,138.095 16.751 C 138.477 16.558,139.122 16.400,139.528 16.400 C 139.934 16.400,140.380 16.286,140.520 16.147 C 140.896 15.771,147.293 13.624,148.076 13.611 C 148.448 13.605,148.864 13.420,149.000 13.200 C 149.423 12.515,148.370 12.766,143.000 14.630 M239.000 13.200 C 239.136 13.420,239.524 13.600,239.861 13.600 C 240.435 13.600,248.022 16.033,249.800 16.786 C 252.111 17.766,254.123 18.410,254.305 18.228 C 254.523 18.011,253.891 17.742,249.400 16.142 C 241.133 13.197,238.546 12.465,239.000 13.200 M130.647 19.236 C 124.741 21.632,117.921 25.083,111.865 28.740 C 109.260 30.313,106.965 31.600,106.765 31.600 C 106.564 31.600,106.400 31.780,106.400 32.000 C 106.400 32.220,106.239 32.400,106.042 32.400 C 105.744 32.400,99.510 36.449,98.200 37.493 C 97.980 37.668,96.810 38.523,95.600 39.391 C 84.583 47.299,68.575 63.305,60.586 74.400 C 59.715 75.610,58.777 76.870,58.501 77.200 C 56.518 79.575,49.301 91.029,46.780 95.800 C 42.971 103.009,39.608 110.017,39.006 112.000 C 38.839 112.550,38.570 113.180,38.408 113.400 C 37.953 114.019,34.583 123.003,33.382 126.800 C 32.790 128.670,32.162 130.560,31.986 131.000 C 31.350 132.587,30.283 137.217,30.503 137.436 C 30.626 137.559,30.840 137.242,30.977 136.730 C 31.115 136.219,31.421 135.080,31.657 134.200 C 32.464 131.186,36.057 120.269,36.781 118.634 C 37.178 117.735,37.904 116.010,38.393 114.800 C 38.883 113.590,39.516 112.060,39.801 111.400 C 40.086 110.740,40.743 109.213,41.260 108.008 C 43.356 103.120,48.531 93.289,51.582 88.400 C 55.074 82.802,62.717 72.136,65.673 68.734 C 66.183 68.147,66.944 67.247,67.365 66.734 C 72.420 60.563,83.157 49.803,88.539 45.514 C 94.880 40.460,97.080 38.801,99.981 36.887 C 101.861 35.646,103.490 34.532,103.600 34.411 C 104.062 33.905,107.216 32.000,107.591 32.000 C 107.816 32.000,108.000 31.820,108.000 31.600 C 108.000 31.380,108.153 31.200,108.340 31.200 C 108.527 31.200,110.350 30.193,112.391 28.963 C 116.985 26.193,124.084 22.526,127.800 21.004 C 129.340 20.373,130.771 19.709,130.980 19.528 C 131.189 19.348,131.673 19.200,132.056 19.200 C 132.439 19.200,132.864 19.020,133.000 18.800 C 133.345 18.241,132.893 18.325,130.647 19.236 M255.000 18.800 C 255.136 19.020,255.561 19.200,255.944 19.200 C 256.327 19.200,256.811 19.351,257.020 19.536 C 257.229 19.721,258.030 20.111,258.800 20.402 C 262.160 21.676,273.302 27.410,276.908 29.721 C 278.177 30.534,279.299 31.200,279.400 31.200 C 279.631 31.200,284.128 34.047,284.400 34.366 C 284.510 34.495,286.217 35.680,288.193 37.000 C 296.274 42.398,310.739 55.031,314.710 60.159 C 315.204 60.796,316.551 62.336,317.704 63.582 C 321.257 67.420,324.009 70.682,325.728 73.092 C 326.632 74.362,327.694 75.749,328.086 76.175 C 328.479 76.602,328.800 77.084,328.800 77.247 C 328.800 77.410,329.030 77.781,329.312 78.071 C 330.160 78.948,333.600 84.013,333.600 84.386 C 333.600 84.577,333.735 84.793,333.900 84.867 C 334.247 85.021,336.400 88.261,336.400 88.630 C 336.400 88.765,336.735 89.354,337.143 89.938 C 339.311 93.034,347.503 108.969,348.566 112.157 C 348.705 112.574,348.912 112.821,349.026 112.707 C 349.438 112.296,343.549 99.965,339.710 93.200 C 336.346 87.272,328.917 76.179,325.245 71.600 C 315.374 59.292,303.363 47.516,292.200 39.203 C 289.560 37.237,281.261 31.600,281.007 31.600 C 280.918 31.600,279.261 30.637,277.323 29.461 C 271.659 26.021,266.115 23.077,261.200 20.897 C 255.176 18.225,254.504 17.998,255.000 18.800 M177.600 53.045 C 172.513 53.647,169.121 54.174,167.600 54.597 C 163.685 55.686,162.297 56.146,160.000 57.114 C 159.450 57.346,157.650 58.031,156.000 58.637 C 151.387 60.329,146.594 63.014,140.412 67.369 C 135.814 70.607,125.801 80.018,123.357 83.400 C 122.720 84.279,121.871 85.359,121.469 85.800 C 121.067 86.240,120.443 87.095,120.083 87.700 C 119.722 88.305,119.286 88.800,119.114 88.800 C 118.941 88.800,118.800 89.055,118.800 89.367 C 118.800 89.678,118.646 89.993,118.457 90.067 C 118.093 90.208,114.585 95.785,113.592 97.800 C 113.267 98.460,112.896 99.090,112.767 99.200 C 112.442 99.477,108.645 107.485,108.025 109.200 C 107.747 109.970,107.364 110.960,107.174 111.400 C 106.807 112.248,105.060 117.917,104.338 120.600 C 104.101 121.480,103.760 122.650,103.579 123.200 C 102.866 125.375,102.003 130.039,102.047 131.479 C 102.093 132.947,102.107 132.930,102.454 131.000 C 103.169 127.020,104.647 120.995,106.084 116.200 C 118.655 74.250,158.398 47.581,198.200 54.385 C 201.015 54.866,201.835 54.902,201.461 54.528 C 200.066 53.132,184.846 52.187,177.600 53.045 M204.200 55.650 C 214.553 59.071,221.190 62.236,227.920 66.962 C 241.631 76.589,253.645 91.379,259.959 106.400 C 260.467 107.610,261.110 109.140,261.387 109.800 C 262.654 112.817,262.746 112.986,262.773 112.349 C 262.811 111.444,261.805 108.975,258.964 103.000 C 257.956 100.880,256.966 99.052,254.396 94.567 C 253.492 92.990,249.082 86.741,247.226 84.406 C 237.835 72.596,224.232 62.291,212.400 58.024 C 211.630 57.746,210.640 57.365,210.200 57.175 C 208.591 56.484,203.005 54.801,202.411 54.829 C 202.075 54.844,202.880 55.214,204.200 55.650 M262.990 114.000 C 264.212 118.368,265.543 122.196,265.571 121.424 C 265.608 120.439,263.595 113.933,263.090 113.400 C 262.848 113.146,262.812 113.364,262.990 114.000 M349.200 113.397 C 349.200 113.506,349.821 115.171,350.580 117.097 C 351.338 119.024,352.533 122.271,353.234 124.312 C 353.935 126.354,354.576 127.957,354.658 127.875 C 354.880 127.653,352.135 119.559,350.055 114.300 C 349.672 113.333,349.200 112.834,349.200 113.397 M265.600 122.904 C 265.600 123.207,265.852 124.342,266.160 125.427 C 266.468 126.512,266.920 128.840,267.164 130.600 C 268.368 139.290,268.384 139.367,268.181 135.400 C 268.079 133.420,267.712 130.360,267.366 128.600 C 267.019 126.840,266.640 124.813,266.523 124.096 C 266.311 122.789,265.600 121.870,265.600 122.904 M354.825 128.505 C 354.811 128.673,355.175 130.113,355.634 131.705 C 356.907 136.124,357.215 137.253,357.664 139.128 C 357.891 140.079,358.156 140.778,358.252 140.681 C 358.419 140.514,358.124 139.125,357.257 136.000 C 357.044 135.230,356.596 133.610,356.262 132.400 C 355.606 130.019,354.866 128.015,354.825 128.505 M101.447 135.259 C 100.505 141.422,100.662 159.558,101.671 161.200 C 101.905 161.582,101.962 160.711,101.827 158.800 C 101.217 150.153,101.165 146.432,101.577 140.647 C 101.995 134.768,101.930 132.094,101.447 135.259 M29.821 139.000 C 29.668 139.660,29.362 141.100,29.141 142.200 C 28.920 143.300,28.589 144.740,28.406 145.400 C 27.883 147.287,27.492 150.632,27.835 150.294 C 28.005 150.126,28.276 149.136,28.436 148.094 C 28.596 147.052,29.106 144.497,29.569 142.415 C 30.031 140.333,30.340 138.443,30.254 138.215 C 30.169 137.987,29.974 138.340,29.821 139.000 M268.492 147.800 C 268.492 152.832,268.604 154.859,268.823 153.800 C 269.251 151.732,269.251 143.868,268.823 141.800 C 268.604 140.741,268.492 142.768,268.492 147.800 M358.638 143.000 C 358.970 144.984,359.202 145.304,359.194 143.767 C 359.191 143.125,359.004 142.330,358.779 142.000 C 358.486 141.570,358.446 141.854,358.638 143.000 M359.495 146.800 C 359.612 147.790,359.864 148.903,360.054 149.274 C 360.244 149.644,360.413 150.634,360.428 151.474 C 360.444 152.313,360.620 153.360,360.820 153.800 C 361.547 155.397,360.386 147.820,359.595 145.800 C 359.411 145.330,359.369 145.742,359.495 146.800 M26.812 153.684 C 25.896 159.152,24.807 168.779,24.854 171.000 C 24.904 173.347,25.517 170.418,25.560 167.624 C 25.582 166.207,25.772 164.047,25.982 162.824 C 26.910 157.419,27.720 151.186,27.520 150.986 C 27.400 150.866,27.081 152.080,26.812 153.684 M361.468 158.000 C 361.600 159.210,361.774 160.275,361.854 160.367 C 362.164 160.721,361.925 157.357,361.586 156.600 C 361.352 156.078,361.312 156.563,361.468 158.000 M267.819 159.700 C 267.557 162.966,267.252 164.876,266.162 170.079 C 265.505 173.213,265.473 173.725,265.958 173.426 C 266.155 173.305,266.408 172.529,266.522 171.703 C 266.635 170.876,267.015 168.760,267.365 167.000 C 268.036 163.630,268.675 156.400,268.302 156.400 C 268.182 156.400,267.964 157.885,267.819 159.700 M362.229 164.032 C 362.356 165.445,362.627 167.918,362.830 169.529 C 363.310 173.326,363.311 196.000,362.832 198.827 C 362.362 201.595,361.993 207.740,362.316 207.417 C 363.952 205.781,363.904 163.371,362.264 161.731 C 362.118 161.584,362.102 162.620,362.229 164.032 M102.046 163.600 C 102.022 164.370,102.374 166.800,102.827 169.000 C 103.281 171.200,103.744 173.450,103.856 174.000 C 103.968 174.550,104.204 175.360,104.380 175.800 C 104.556 176.240,105.002 177.680,105.372 179.000 C 106.021 181.320,106.506 182.638,107.247 184.095 C 107.441 184.477,107.600 184.968,107.600 185.187 C 107.600 186.474,112.408 195.341,115.523 199.800 C 117.549 202.698,126.824 212.400,127.569 212.400 C 127.739 212.400,128.310 212.785,128.839 213.256 C 132.239 216.284,145.131 223.126,148.829 223.866 C 150.688 224.238,150.190 223.754,147.963 223.026 C 134.332 218.567,120.286 207.305,113.010 195.000 C 107.756 186.114,104.760 177.384,102.441 164.200 C 102.133 162.450,102.084 162.375,102.046 163.600 M24.635 186.200 C 24.722 198.935,25.007 203.967,25.976 209.800 C 26.195 211.120,26.556 213.441,26.779 214.958 C 27.001 216.475,27.277 217.810,27.392 217.925 C 27.722 218.255,27.601 215.971,27.185 214.000 C 25.807 207.482,25.122 199.194,24.822 185.400 L 24.543 172.600 24.635 186.200 M265.022 175.200 C 264.565 177.160,262.459 183.520,261.710 185.200 C 251.581 207.935,236.198 220.194,210.200 226.249 C 209.485 226.415,209.257 226.590,209.635 226.681 C 209.984 226.765,211.064 226.634,212.035 226.389 C 213.006 226.145,214.250 225.854,214.800 225.742 C 215.350 225.631,216.160 225.391,216.600 225.210 C 217.040 225.028,218.480 224.578,219.800 224.209 C 222.486 223.459,222.747 223.359,226.400 221.690 C 227.830 221.037,229.720 220.174,230.600 219.772 C 231.480 219.370,232.290 218.942,232.400 218.821 C 232.510 218.699,232.960 218.404,233.400 218.164 C 238.374 215.453,239.666 214.539,244.562 210.263 C 247.354 207.823,249.352 205.871,251.000 203.972 C 252.478 202.269,256.400 196.899,256.400 196.578 C 256.400 196.449,256.911 195.592,257.536 194.672 C 258.721 192.930,261.524 187.221,262.383 184.800 C 262.657 184.030,263.036 183.040,263.226 182.600 C 264.127 180.515,265.642 175.126,265.504 174.501 C 265.406 174.061,265.227 174.321,265.022 175.200 M361.467 210.747 C 361.298 211.927,361.247 212.981,361.354 213.088 C 361.649 213.382,362.090 210.636,361.922 209.552 C 361.832 208.970,361.655 209.434,361.467 210.747 M360.605 216.659 C 360.470 217.507,360.199 218.920,360.003 219.800 C 359.397 222.526,359.180 224.153,359.459 223.875 C 359.606 223.728,359.861 222.841,360.026 221.904 C 360.191 220.967,360.519 219.131,360.754 217.825 C 360.990 216.518,361.108 215.375,361.017 215.284 C 360.926 215.193,360.741 215.812,360.605 216.659 M27.788 220.400 C 27.941 221.390,28.246 222.920,28.465 223.800 C 28.684 224.680,29.016 226.030,29.203 226.800 C 29.390 227.570,29.733 228.830,29.965 229.600 L 30.388 231.000 30.215 229.600 C 30.120 228.830,29.748 226.940,29.388 225.400 C 29.029 223.860,28.598 221.833,28.430 220.896 C 28.017 218.587,27.437 218.138,27.788 220.400 M150.600 224.400 C 150.736 224.620,151.366 224.800,152.000 224.800 C 152.634 224.800,153.249 224.956,153.367 225.146 C 153.484 225.336,154.170 225.603,154.890 225.739 C 155.611 225.875,157.370 226.266,158.800 226.607 C 169.385 229.134,200.050 230.046,203.600 227.939 C 204.227 227.567,200.118 227.777,194.000 228.431 C 183.559 229.545,167.154 228.219,156.106 225.367 C 150.170 223.834,150.260 223.850,150.600 224.400 M358.854 225.000 C 358.819 225.440,358.689 226.250,358.567 226.800 C 358.375 227.663,358.407 227.703,358.798 227.090 C 359.047 226.699,359.177 225.889,359.086 225.290 C 358.978 224.579,358.897 224.479,358.854 225.000 M205.600 227.200 L 204.200 227.495 205.800 227.519 C 206.680 227.533,207.760 227.389,208.200 227.200 C 209.242 226.752,207.726 226.752,205.600 227.200 M357.677 230.072 C 357.457 231.022,356.910 233.145,356.461 234.789 C 355.543 238.151,355.574 239.049,356.507 236.116 C 357.461 233.115,358.476 228.743,358.267 228.533 C 358.162 228.429,357.897 229.121,357.677 230.072 M30.562 232.640 C 31.208 235.331,32.901 240.432,33.087 240.246 C 33.308 240.025,32.153 235.816,31.567 234.705 C 31.365 234.323,31.200 233.569,31.200 233.029 C 31.200 232.489,30.994 231.920,30.742 231.764 C 30.416 231.563,30.364 231.816,30.562 232.640 M354.245 241.921 C 353.624 243.834,353.022 245.670,352.908 246.000 C 352.772 246.391,352.834 246.461,353.084 246.200 C 353.549 245.716,355.772 238.839,355.539 238.606 C 355.449 238.515,354.866 240.007,354.245 241.921 M33.206 241.048 C 33.199 241.547,34.388 245.341,35.322 247.800 C 35.656 248.680,36.421 250.750,37.020 252.400 C 39.002 257.852,47.402 275.131,47.852 274.681 C 47.937 274.596,46.520 271.570,44.703 267.955 C 41.018 260.625,39.175 256.677,38.189 254.000 C 37.824 253.010,37.377 251.840,37.195 251.400 C 37.013 250.960,36.389 249.250,35.807 247.600 C 35.226 245.950,34.581 244.287,34.375 243.905 C 34.169 243.523,33.997 242.893,33.994 242.505 C 33.987 241.739,33.216 240.313,33.206 241.048 M352.200 247.600 C 352.050 248.073,352.017 248.550,352.127 248.660 C 352.237 248.770,352.450 248.473,352.600 248.000 C 352.750 247.527,352.783 247.050,352.673 246.940 C 352.563 246.830,352.350 247.127,352.200 247.600 M350.467 252.477 C 349.782 254.280,349.296 255.829,349.387 255.921 C 349.587 256.121,350.800 253.298,350.800 252.631 C 350.800 252.372,350.957 251.989,351.148 251.780 C 351.518 251.377,352.121 249.200,351.863 249.200 C 351.780 249.200,351.151 250.675,350.467 252.477 M348.551 257.043 C 345.035 266.989,335.000 280.133,329.200 282.389 C 328.430 282.689,327.564 283.115,327.274 283.337 C 326.381 284.023,317.259 283.805,315.238 283.050 C 314.268 282.688,313.388 282.479,313.280 282.586 C 313.173 282.693,313.336 282.862,313.643 282.960 C 313.949 283.059,314.920 283.374,315.800 283.661 C 327.796 287.575,339.825 278.261,348.596 258.268 C 348.966 257.425,349.167 256.634,349.044 256.510 C 348.920 256.387,348.698 256.626,348.551 257.043 M126.571 265.967 C 126.571 266.393,126.697 266.664,126.850 266.569 C 127.003 266.475,127.988 267.613,129.038 269.099 C 137.006 280.366,142.077 284.042,149.800 284.150 C 155.207 284.225,159.562 282.568,162.400 279.356 C 163.109 278.554,163.167 278.395,162.600 278.812 C 162.160 279.135,161.710 279.511,161.600 279.647 C 161.019 280.364,156.726 282.800,156.043 282.800 C 155.605 282.800,155.136 282.980,155.000 283.200 C 154.700 283.685,146.283 283.742,145.295 283.265 C 144.913 283.080,143.520 282.411,142.200 281.777 C 139.133 280.305,134.158 275.445,130.758 270.600 C 127.436 265.867,126.571 264.910,126.571 265.967 M302.000 270.576 C 302.000 270.919,302.183 271.200,302.406 271.200 C 302.629 271.200,303.143 271.745,303.548 272.411 C 303.953 273.077,305.525 275.003,307.042 276.691 C 308.559 278.380,309.748 279.993,309.683 280.277 C 309.569 280.781,311.811 282.405,312.600 282.389 C 312.820 282.385,312.320 281.988,311.490 281.506 C 310.563 280.969,310.060 280.420,310.189 280.085 C 310.350 279.665,307.359 275.981,305.574 274.400 C 305.449 274.290,304.772 273.354,304.068 272.320 C 302.620 270.191,302.000 269.669,302.000 270.576 M216.800 272.067 C 216.800 272.323,216.914 272.419,217.053 272.280 C 217.192 272.141,217.850 272.786,218.514 273.713 C 227.547 286.328,240.356 287.784,250.431 277.341 C 252.098 275.614,253.584 273.840,253.734 273.400 C 254.019 272.561,253.568 273.024,250.005 277.223 C 248.073 279.501,243.369 282.800,242.054 282.800 C 241.610 282.800,241.136 282.980,241.000 283.200 C 240.700 283.685,232.283 283.742,231.295 283.265 C 230.913 283.080,229.520 282.406,228.200 281.766 C 225.770 280.587,220.254 275.582,218.430 272.900 C 217.536 271.586,216.800 271.210,216.800 272.067 M48.000 275.513 C 48.000 276.436,53.437 280.946,56.622 282.665 C 59.828 284.396,64.938 284.661,70.200 283.368 C 72.380 282.832,78.000 278.575,78.000 277.459 C 78.000 277.253,77.027 278.004,75.838 279.129 C 74.649 280.253,72.804 281.563,71.738 282.039 C 70.672 282.515,69.487 283.061,69.105 283.252 C 68.091 283.760,60.628 283.678,59.319 283.144 C 56.318 281.920,55.276 281.396,53.800 280.369 C 51.613 278.847,48.800 276.190,48.800 275.646 C 48.800 275.401,48.620 275.200,48.400 275.200 C 48.180 275.200,48.000 275.341,48.000 275.513 " stroke="none" fill="#fb95c0" fill-rule="evenodd"></path><path id="path4" d="M160.691 79.489 C 161.401 79.577,162.661 79.579,163.491 79.492 C 164.321 79.405,163.740 79.333,162.200 79.331 C 160.660 79.329,159.981 79.400,160.691 79.489 M155.680 79.995 C 154.954 80.167,154.256 80.410,154.130 80.537 C 153.865 80.802,156.529 80.412,158.000 79.969 L 159.000 79.669 158.000 79.675 C 157.450 79.679,156.406 79.823,155.680 79.995 M166.800 79.939 C 168.347 80.451,171.093 80.819,170.400 80.421 C 170.070 80.231,168.900 79.971,167.800 79.842 C 166.500 79.690,166.150 79.724,166.800 79.939 M150.200 81.972 C 148.880 82.596,147.440 83.416,147.000 83.795 C 146.241 84.449,146.258 84.450,147.334 83.811 C 147.957 83.441,149.667 82.618,151.134 81.983 C 152.600 81.348,153.530 80.830,153.200 80.833 C 152.870 80.835,151.520 81.347,150.200 81.972 M172.760 81.616 C 173.727 82.055,174.602 82.332,174.703 82.231 C 174.916 82.017,172.122 80.796,171.451 80.809 C 171.203 80.814,171.792 81.177,172.760 81.616 M175.400 82.800 C 175.536 83.020,175.839 83.200,176.073 83.200 C 177.718 83.200,184.698 89.458,187.122 93.106 C 187.892 94.264,188.607 95.127,188.711 95.023 C 188.987 94.746,185.116 89.647,183.329 87.934 C 180.686 85.399,174.552 81.428,175.400 82.800 M144.279 85.500 C 143.482 86.105,142.823 86.743,142.815 86.919 C 142.807 87.094,143.520 86.659,144.400 85.952 C 145.874 84.768,146.221 84.400,145.864 84.400 C 145.790 84.400,145.076 84.895,144.279 85.500 M140.975 88.500 L 139.800 89.800 141.100 88.625 C 142.312 87.530,142.584 87.200,142.275 87.200 C 142.206 87.200,141.621 87.785,140.975 88.500 M138.600 91.089 C 136.703 93.611,136.820 94.004,138.752 91.600 C 139.459 90.720,139.894 90.006,139.719 90.013 C 139.543 90.019,139.040 90.504,138.600 91.089 M154.400 90.421 C 153.734 90.648,154.147 90.688,155.640 90.542 C 162.683 89.852,168.603 93.867,171.946 101.600 C 172.358 102.552,172.366 102.542,172.123 101.400 C 170.647 94.472,160.661 88.286,154.400 90.421 M149.162 92.303 C 146.278 94.241,143.209 97.854,142.624 100.000 C 142.474 100.550,142.911 100.010,143.594 98.800 C 145.079 96.168,147.644 93.460,149.472 92.593 C 150.202 92.246,150.800 91.881,150.800 91.781 C 150.800 91.421,150.180 91.619,149.162 92.303 M135.881 95.000 C 135.513 95.770,135.282 96.400,135.367 96.400 C 135.452 96.400,135.893 95.770,136.347 95.000 C 136.801 94.230,137.032 93.600,136.861 93.600 C 136.689 93.600,136.248 94.230,135.881 95.000 M190.130 98.386 C 190.828 99.924,191.453 101.027,191.517 100.839 C 191.657 100.430,189.640 96.072,189.179 95.787 C 189.003 95.678,189.431 96.848,190.130 98.386 M133.489 99.657 C 133.182 100.396,132.816 101.540,132.676 102.200 C 132.394 103.527,132.294 103.708,133.858 100.050 C 134.175 99.308,134.347 98.614,134.241 98.507 C 134.134 98.401,133.796 98.918,133.489 99.657 M141.800 102.400 C 141.648 103.091,141.614 103.747,141.724 103.857 C 141.834 103.967,142.048 103.491,142.200 102.800 C 142.352 102.109,142.386 101.453,142.276 101.343 C 142.166 101.233,141.952 101.709,141.800 102.400 M191.628 101.876 C 191.718 102.915,192.344 103.796,192.372 102.924 C 192.387 102.442,192.220 101.936,192.000 101.800 C 191.780 101.664,191.613 101.698,191.628 101.876 M172.537 106.200 C 172.539 107.960,172.609 108.630,172.693 107.689 C 172.778 106.749,172.777 105.309,172.691 104.489 C 172.605 103.670,172.536 104.440,172.537 106.200 M131.800 104.800 C 131.648 105.491,131.614 106.147,131.724 106.257 C 131.834 106.367,132.048 105.891,132.200 105.200 C 132.352 104.509,132.386 103.853,132.276 103.743 C 132.166 103.633,131.952 104.109,131.800 104.800 M192.414 104.233 C 192.422 104.435,192.685 105.770,193.000 107.200 C 193.755 110.631,193.751 117.629,192.993 121.233 C 192.659 122.821,192.470 124.204,192.573 124.307 C 192.766 124.499,192.856 124.156,193.582 120.480 C 194.172 117.489,194.100 110.730,193.441 107.275 C 192.967 104.789,192.367 103.013,192.414 104.233 M131.052 108.100 C 130.725 109.321,130.788 119.629,131.128 120.485 C 131.278 120.862,131.400 118.027,131.400 114.185 C 131.400 110.343,131.376 107.200,131.347 107.200 C 131.317 107.200,131.185 107.605,131.052 108.100 M141.822 110.000 C 142.733 114.722,147.695 120.267,152.000 121.374 C 152.550 121.515,152.010 121.141,150.800 120.541 C 146.969 118.644,142.417 113.209,142.394 110.504 C 142.391 110.117,142.200 109.530,141.970 109.200 C 141.662 108.758,141.623 108.969,141.822 110.000 M171.763 111.053 C 171.612 111.684,171.228 112.715,170.911 113.344 C 170.594 113.973,170.515 114.376,170.735 114.240 C 171.275 113.906,172.578 110.445,172.277 110.144 C 172.146 110.013,171.915 110.422,171.763 111.053 M167.800 117.511 C 166.920 118.330,165.750 119.307,165.200 119.680 C 164.650 120.053,164.396 120.367,164.635 120.379 C 164.875 120.391,166.135 119.418,167.435 118.218 C 168.736 117.018,169.710 116.032,169.600 116.028 C 169.490 116.024,168.680 116.691,167.800 117.511 M162.000 121.081 C 161.075 121.489,159.311 121.704,156.800 121.717 C 153.603 121.733,153.254 121.793,154.600 122.096 C 157.098 122.657,162.561 121.854,163.780 120.745 C 164.344 120.232,163.617 120.370,162.000 121.081 M131.656 122.600 C 131.656 123.040,131.811 123.760,132.000 124.200 L 132.344 125.000 132.344 124.200 C 132.344 123.760,132.189 123.040,132.000 122.600 L 131.656 121.800 131.656 122.600 M192.046 125.067 C 192.021 125.324,191.884 125.864,191.741 126.267 C 191.540 126.836,191.594 126.897,191.979 126.542 C 192.252 126.291,192.389 125.751,192.284 125.342 C 192.179 124.934,192.072 124.810,192.046 125.067 M132.580 126.023 C 132.853 127.443,134.005 130.128,134.241 129.893 C 134.417 129.716,134.074 128.768,132.832 126.000 L 132.383 125.000 132.580 126.023 M190.621 129.036 C 188.115 135.723,181.073 143.120,174.267 146.214 C 173.130 146.731,172.431 147.164,172.713 147.177 C 177.519 147.393,192.794 131.382,191.496 127.488 C 191.420 127.260,191.026 127.956,190.621 129.036 M134.400 130.641 C 134.400 131.163,137.359 136.000,137.678 136.000 C 137.850 136.000,137.362 135.019,136.595 133.819 C 135.828 132.620,135.200 131.460,135.200 131.243 C 135.200 131.025,135.020 130.736,134.800 130.600 C 134.580 130.464,134.400 130.483,134.400 130.641 M138.300 137.012 C 139.829 139.866,150.884 148.050,151.873 147.060 C 151.979 146.954,151.244 146.503,150.238 146.058 C 147.093 144.667,143.910 142.356,140.839 139.235 C 139.211 137.579,138.068 136.579,138.300 137.012 M153.000 147.600 C 153.136 147.820,153.642 147.987,154.124 147.972 C 154.969 147.945,154.971 147.931,154.200 147.600 C 153.099 147.127,152.708 147.127,153.000 147.600 M170.600 147.600 C 169.829 147.931,169.831 147.945,170.676 147.972 C 171.158 147.987,171.664 147.820,171.800 147.600 C 172.092 147.127,171.701 147.127,170.600 147.600 M155.679 148.391 C 156.053 148.625,158.393 148.891,160.879 148.983 L 165.400 149.150 161.587 148.826 C 159.489 148.648,157.149 148.381,156.387 148.233 C 155.322 148.027,155.158 148.064,155.679 148.391 M167.000 148.400 L 165.400 148.686 167.000 148.737 C 167.880 148.765,168.870 148.613,169.200 148.400 C 169.915 147.938,169.581 147.938,167.000 148.400 M294.856 260.267 C 295.155 260.744,296.705 262.925,298.300 265.114 L 301.200 269.095 301.200 302.619 C 301.200 326.452,301.069 336.556,300.748 337.572 C 298.040 346.120,292.193 352.016,284.000 354.462 C 281.688 355.153,273.427 355.137,271.565 354.439 C 263.262 351.326,257.745 345.994,255.591 339.000 C 255.319 338.120,254.941 336.987,254.749 336.481 C 254.557 335.976,254.389 321.216,254.375 303.681 C 254.357 281.963,254.222 272.119,253.949 272.800 C 253.203 274.660,253.755 335.354,254.541 338.000 C 261.257 360.593,292.009 361.712,300.716 339.680 L 301.775 337.000 301.905 303.441 L 302.034 269.881 300.555 267.641 C 298.516 264.553,293.361 257.882,294.856 260.267 M212.005 264.632 C 212.916 265.970,214.110 267.590,214.657 268.232 C 215.204 268.875,214.906 268.305,213.995 266.968 C 213.084 265.630,211.890 264.010,211.343 263.368 C 210.796 262.725,211.094 263.295,212.005 264.632 M125.893 293.800 C 125.804 312.415,125.600 323.613,125.332 324.691 C 123.263 332.999,115.280 340.627,107.200 342.015 C 106.210 342.185,104.710 342.457,103.866 342.620 C 102.259 342.930,97.894 342.311,94.874 341.344 C 88.013 339.149,82.019 333.030,79.775 325.929 C 78.778 322.772,78.114 278.337,79.042 276.802 L 79.647 275.800 78.824 276.744 C 77.778 277.944,77.549 316.620,78.553 322.600 C 82.790 347.839,116.750 350.445,125.480 326.200 C 126.234 324.106,127.021 266.692,126.317 265.200 C 126.161 264.870,125.970 277.740,125.893 293.800 M215.998 270.526 C 216.491 271.907,216.504 364.340,216.012 368.800 C 212.922 396.773,174.409 400.243,164.960 373.400 C 164.309 371.552,164.237 367.891,164.008 325.113 C 163.871 299.655,163.634 278.700,163.480 278.547 C 162.881 277.948,163.160 367.198,163.767 370.200 C 165.852 380.522,172.807 388.523,182.000 391.174 C 182.990 391.460,184.322 391.852,184.960 392.047 C 195.930 395.389,210.561 387.025,215.482 374.600 L 216.590 371.800 216.706 321.391 C 216.808 276.615,216.752 270.893,216.208 270.191 C 215.631 269.446,215.619 269.465,215.998 270.526 " stroke="none" fill="#9298c5" fill-rule="evenodd"></path></g></svg>